<?xml version="1.0" encoding="UTF-8"?>
<svg version="1.1" xmlns="http://www.w3.org/2000/svg" width="379" height="386">
<path d="M0 0 C125.07 0 250.14 0 379 0 C379 127.38 379 254.76 379 386 C253.93 386 128.86 386 0 386 C0 258.62 0 131.24 0 0 Z " fill="#FCFCFC" transform="translate(0,0)"/>
<path d="M0 0 C11.81505698 10.62179501 18.60602892 21.52416525 24.00976562 36.31933594 C24.574375 37.70378906 24.574375 37.70378906 25.15039062 39.11621094 C31.11509674 61.34829735 21.97903622 86.14707771 11.00976562 105.31933594 C8.34292873 109.59359704 5.26987129 113.48257411 2.00976562 117.31933594 C1.32527344 118.16496094 0.64078125 119.01058594 -0.06445312 119.88183594 C-12.66957343 134.79362336 -29.65902469 145.80457054 -48.99023438 149.31933594 C-48.99023438 149.97933594 -48.99023438 150.63933594 -48.99023438 151.31933594 C-19.62570897 141.02855874 2.71503957 124.27953243 16.42797852 95.9831543 C18.57794534 91.41043404 20.55497424 86.77861864 22.31835938 82.04199219 C23.00976562 80.31933594 23.00976562 80.31933594 24.00976562 79.31933594 C25.69585528 79.24728082 27.38477222 79.23547526 29.07226562 79.25683594 C30.45091797 79.27037109 30.45091797 79.27037109 31.85742188 79.28417969 C32.92283203 79.30158203 32.92283203 79.30158203 34.00976562 79.31933594 C33.75045734 80.86298292 33.47667086 82.40419974 33.19726562 83.94433594 C33.04644531 84.80285156 32.895625 85.66136719 32.74023438 86.54589844 C29.34551066 99.4349564 18.80790722 113.5588976 10.00976562 123.31933594 C9.28789062 124.13402344 8.56601562 124.94871094 7.82226562 125.78808594 C1.06727648 132.98748226 -6.59967437 138.23685738 -14.99023438 143.31933594 C-15.94414062 143.9084375 -16.89804687 144.49753906 -17.88085938 145.10449219 C-26.80827544 150.09109173 -39.62609793 154.31933594 -49.99023438 154.31933594 C-49.97863281 154.95355469 -49.96703125 155.58777344 -49.95507812 156.24121094 C-49.78203758 174.13854688 -51.44871963 191.84622525 -53.34179688 209.62011719 C-54.37990124 220.81681425 -54.0795048 232.08637025 -53.99023438 243.31933594 C-52.30607422 244.04636719 -52.30607422 244.04636719 -50.58789062 244.78808594 C-30.50364722 253.69025477 -30.50364722 253.69025477 -26.76757812 262.05761719 C-26.51105469 262.80398438 -26.25453125 263.55035156 -25.99023438 264.31933594 C-29.29023438 264.31933594 -32.59023437 264.31933594 -35.99023438 264.31933594 C-36.50585938 263.14371094 -37.02148438 261.96808594 -37.55273438 260.75683594 C-39.86153544 256.12274238 -42.95084664 252.55272055 -46.99023438 249.31933594 C-47.98023438 248.98933594 -48.97023437 248.65933594 -49.99023438 248.31933594 C-49.51972656 248.75503906 -49.04921875 249.19074219 -48.56445312 249.63964844 C-44.7962857 253.24398249 -41.90539974 256.36243736 -39.99023438 261.31933594 C-39.99023438 262.30933594 -39.99023438 263.29933594 -39.99023438 264.31933594 C-40.79541504 264.30249756 -41.6005957 264.28565918 -42.43017578 264.26831055 C-64.332227 263.94943069 -64.332227 263.94943069 -82.99023438 274.31933594 C-85.45622476 275.85975705 -87.99568682 277.24913615 -90.55273438 278.63183594 C-98.67653749 283.00421814 -98.67653749 283.00421814 -104.30273438 290.06933594 C-104.85960937 291.14183594 -105.41648438 292.21433594 -105.99023438 293.31933594 C-106.32023438 293.31933594 -106.65023437 293.31933594 -106.99023438 293.31933594 C-107.54648049 290.22025043 -107.36740021 288.03354359 -105.88867188 285.23339844 C-99.36547058 276.07520942 -89.57588239 270.79684909 -79.99023438 265.31933594 C-87.25023437 264.98933594 -94.51023438 264.65933594 -101.99023438 264.31933594 C-98.71923083 256.14182708 -94.37425363 251.04510826 -86.99023438 246.31933594 C-93.79470533 247.8503419 -98.81834587 252.02225218 -102.61132812 257.78027344 C-103.80993126 259.93300542 -104.93934941 262.09125771 -105.99023438 264.31933594 C-108.96023437 264.31933594 -111.93023437 264.31933594 -114.99023438 264.31933594 C-111.22107355 253.72543246 -102.08607335 249.35036614 -92.50195312 244.78808594 C-88.99023438 243.31933594 -88.99023438 243.31933594 -85.99023438 243.31933594 C-86.30194638 240.79840296 -86.6145834 238.27759024 -86.92773438 235.75683594 C-87.01474609 235.05236328 -87.10175781 234.34789062 -87.19140625 233.62207031 C-87.36721495 232.2090893 -87.54926809 230.79687128 -87.73754883 229.38549805 C-87.97769137 227.42189772 -88.13094644 225.44824577 -88.27929688 223.47558594 C-88.68146362 220.25690319 -88.68146362 220.25690319 -90.92382812 218.60449219 C-92.16326172 217.99927734 -92.16326172 217.99927734 -93.42773438 217.38183594 C-105.24494521 211.02522467 -114.27366964 202.99802233 -118.99023438 190.31933594 C-119.27898437 189.32933594 -119.56773437 188.33933594 -119.86523438 187.31933594 C-128.25818656 164.93813012 -154.79739562 148.30099018 -174.49023438 136.94433594 C-183.05040088 131.97776001 -190.48776473 125.7360616 -197.99023438 119.31933594 C-198.90160156 118.55105469 -199.81296875 117.78277344 -200.75195312 116.99121094 C-216.44572974 103.45566166 -234.43509539 80.54517216 -236.99023438 59.31933594 C-237.27890855 55.38028437 -237.38981492 51.45578687 -237.42773438 47.50683594 C-237.43812744 46.5399585 -237.44852051 45.57308105 -237.45922852 44.5769043 C-237.30468352 32.180264 -232.66735894 21.48844792 -224.26367188 12.42871094 C-215.51522835 4.31159838 -205.48286924 0.75882491 -193.74023438 0.94433594 C-192.34925537 0.95956299 -192.34925537 0.95956299 -190.93017578 0.97509766 C-174.44808757 1.34700414 -163.10859409 7.8640435 -149.99023438 17.31933594 C-148.00234155 18.67237277 -145.99917776 19.99766266 -143.99023438 21.31933594 C-143.72210938 20.73667969 -143.45398438 20.15402344 -143.17773438 19.55371094 C-134.74145292 3.68018136 -115.14856534 -5.88521589 -98.78710938 -11.03222656 C-67.08402417 -20.57664738 -26.71367178 -22.55850301 0 0 Z " fill="#859DCC" transform="translate(286.990234375,55.6806640625)"/>
<path d="M0 0 C8.48891542 8.25354808 14.01943078 19.35113032 14.24609375 31.3046875 C14.24873264 32.88802078 14.24599221 34.4713708 14.23828125 36.0546875 C14.24214844 36.84875 14.24601563 37.6428125 14.25 38.4609375 C14.24806641 39.62109375 14.24806641 39.62109375 14.24609375 40.8046875 C14.24496582 41.50078125 14.24383789 42.196875 14.24267578 42.9140625 C14.0948371 45.35981641 13.61149213 47.65818159 13.11328125 50.0546875 C-0.1364817 50.26007159 -13.38646451 50.44638958 -26.63671875 50.6171875 C-28.117202 50.6362874 -28.117202 50.6362874 -29.62759399 50.65577316 C-57.88877048 51.01526307 -86.12694489 51.10855411 -114.38671875 50.6171875 C-115.12452072 50.60437366 -115.86232269 50.59155983 -116.6224823 50.5783577 C-125.37766671 50.42448112 -134.13238285 50.25136058 -142.88671875 50.0546875 C-139.2111061 61.72704759 -139.2111061 61.72704759 -134.07421875 72.8046875 C-133.57317627 73.72181519 -133.57317627 73.72181519 -133.06201172 74.6574707 C-130.26961595 79.64742852 -127.04312943 84.2562346 -123.55078125 88.78515625 C-122.05853786 90.82035205 -120.92931873 92.76412693 -119.88671875 95.0546875 C-124.28320635 91.6688867 -127.45623482 88.29886927 -130.38671875 83.5546875 C-130.96135864 82.64046021 -130.96135864 82.64046021 -131.54760742 81.70776367 C-144.88671875 60.02086011 -144.88671875 60.02086011 -144.88671875 50.0546875 C-150.16671875 50.0546875 -155.44671875 50.0546875 -160.88671875 50.0546875 C-154.7806422 66.0954095 -147.4706049 80.22419108 -135.88671875 93.0546875 C-135.066875 93.96863281 -134.24703125 94.88257813 -133.40234375 95.82421875 C-120.34850331 109.63116537 -104.76739448 117.25253375 -86.88671875 123.0546875 C-88.32748921 126.41648524 -90.13421896 128.64625018 -92.88671875 131.0546875 C-93.54671875 131.0546875 -94.20671875 131.0546875 -94.88671875 131.0546875 C-95.15226562 131.60640625 -95.4178125 132.158125 -95.69140625 132.7265625 C-97.02554584 135.32508275 -98.49930506 137.80591705 -100.01171875 140.3046875 C-100.55054688 141.19671875 -101.089375 142.08875 -101.64453125 143.0078125 C-102.05445313 143.68328125 -102.464375 144.35875 -102.88671875 145.0546875 C-106.10457305 142.01930069 -108.14031753 138.45183771 -110.38671875 134.6796875 C-115.2093708 126.78726451 -120.70012696 119.90538918 -126.88671875 113.0546875 C-127.7375 112.09433594 -128.58828125 111.13398438 -129.46484375 110.14453125 C-134.83186265 104.17492789 -140.41202708 98.43194519 -146.07421875 92.7421875 C-147.05394653 91.75545044 -147.05394653 91.75545044 -148.0534668 90.7487793 C-153.30960583 85.50984963 -158.81966543 80.62735013 -164.50390625 75.859375 C-178.37774063 64.0018072 -192.47958238 45.35506903 -194.1953125 26.69921875 C-194.44078901 19.40187159 -194.42365106 13.80397788 -189.66796875 7.859375 C-183.84966228 1.96451187 -178.61433784 -0.04308068 -170.38671875 -0.2578125 C-159.3705771 -0.11003499 -150.01668872 4.19525806 -140.44238281 9.23632812 C-137.45571496 10.8076212 -134.7739481 12.08930547 -131.52734375 13.0859375 C-128.88671875 14.0546875 -128.88671875 14.0546875 -127.07421875 17.4296875 C-126.48640625 19.2240625 -126.48640625 19.2240625 -125.88671875 21.0546875 C-125.64050781 21.70308594 -125.39429688 22.35148437 -125.140625 23.01953125 C-124.88671875 25.0546875 -124.88671875 25.0546875 -125.99609375 27.16015625 C-126.5375 27.84722656 -127.07890625 28.53429687 -127.63671875 29.2421875 C-128.1678125 29.93699219 -128.69890625 30.63179687 -129.24609375 31.34765625 C-130.88671875 33.0546875 -130.88671875 33.0546875 -133.88671875 34.0546875 C-133.88671875 34.7146875 -133.88671875 35.3746875 -133.88671875 36.0546875 C-128.96817804 35.32414401 -128.96817804 35.32414401 -125.34375 32.17578125 C-124.11847592 30.16719412 -122.99121968 28.13133181 -121.88671875 26.0546875 C-120.09226999 24.26023874 -117.11932769 24.96729186 -114.69921875 24.9296875 C-103.93395897 24.22736678 -94.43496222 19.45513389 -86.5546875 12.01171875 C-84.01725454 9.03454331 -82.15975234 5.74580736 -80.2421875 2.34765625 C-75.73068529 -5.2841933 -68.30587106 -9.50514663 -59.94921875 -11.6953125 C-38.76569825 -16.38216641 -17.02983695 -14.77219899 0 0 Z " fill="#FAFAFB" transform="translate(271.88671875,84.9453125)"/>
<path d="M0 0 C11.81505698 10.62179501 18.60602892 21.52416525 24.00976562 36.31933594 C24.38875 37.23328125 24.76773437 38.14722656 25.15820312 39.08886719 C26.40801982 43.83014428 26.3911211 48.43475997 26.38476562 53.31933594 C26.38605469 54.33648682 26.38734375 55.3536377 26.38867188 56.40161133 C26.27412005 64.60703653 24.99530634 71.62890292 22.00976562 79.31933594 C21.01976562 79.31933594 20.02976562 79.31933594 19.00976562 79.31933594 C18.95820313 79.939375 18.90664063 80.55941406 18.85351562 81.19824219 C17.67879635 90.36906195 13.57557983 97.45127006 9.00976562 105.31933594 C8.01976562 104.98933594 7.02976562 104.65933594 6.00976562 104.31933594 C5.88476562 96.56933594 5.88476562 96.56933594 7.00976562 94.31933594 C7.66976562 94.31933594 8.32976562 94.31933594 9.00976562 94.31933594 C9.16445313 93.08183594 9.16445313 93.08183594 9.32226562 91.81933594 C9.9842705 88.44912929 10.97738808 85.59704204 12.29101562 82.44433594 C17.56065 66.86454734 13.92914274 47.57206382 7.09179688 33.12792969 C4.6725186 28.41744566 1.49029112 24.67439395 -2.16992188 20.84667969 C-3.99023438 18.31933594 -3.99023438 18.31933594 -4.34179688 14.77636719 C-4.64956014 11.0886543 -4.64956014 11.0886543 -7.83398438 8.99121094 C-9.03760284 8.32258955 -10.25765128 7.68292445 -11.49023438 7.06933594 C-12.45026367 6.56140503 -12.45026367 6.56140503 -13.4296875 6.04321289 C-18.1596193 3.59651129 -22.81457257 1.61109845 -27.99023438 0.31933594 C-28.91964844 0.04347656 -29.8490625 -0.23238281 -30.80664062 -0.51660156 C-51.49501932 -5.9438778 -72.50991425 -2.15195338 -92.99023438 2.31933594 C-93.84222412 2.49609863 -94.69421387 2.67286133 -95.57202148 2.85498047 C-110.92596537 6.09596062 -127.56670264 14.37282138 -137.99023438 26.31933594 C-141.42323796 31.61086865 -143.52923755 37.20971286 -144.99023438 43.31933594 C-149.66528335 42.71697386 -153.39130478 40.68925496 -157.49023438 38.50683594 C-169.36158034 32.42175242 -180.82996946 28.21060171 -194.30273438 31.00683594 C-199.56802284 33.57825589 -204.61246607 36.55590686 -207.32617188 41.99511719 C-210.9237063 54.58648766 -206.49763547 66.79062511 -200.74023438 77.94433594 C-194.26597077 88.87729052 -185.98811157 99.06875615 -176.32226562 107.31152344 C-161.5205298 120.05539649 -146.82463335 133.74283452 -134.99023438 149.31933594 C-134.23484375 150.28097656 -133.47945313 151.24261719 -132.70117188 152.23339844 C-117.73947465 171.59853832 -117.73947465 171.59853832 -118.99023438 182.31933594 C-119.98023438 182.31933594 -120.97023438 182.31933594 -121.99023438 182.31933594 C-123.67625991 180.35480175 -125.17696504 178.41777202 -126.67773438 176.31933594 C-138.59711155 160.32772036 -155.21715417 148.06293107 -172.42749023 138.15161133 C-181.73616847 132.77921573 -189.83491323 126.2944336 -197.99023438 119.31933594 C-198.90160156 118.55105469 -199.81296875 117.78277344 -200.75195312 116.99121094 C-216.44572974 103.45566166 -234.43509539 80.54517216 -236.99023438 59.31933594 C-237.27890855 55.38028437 -237.38981492 51.45578687 -237.42773438 47.50683594 C-237.43812744 46.5399585 -237.44852051 45.57308105 -237.45922852 44.5769043 C-237.30468352 32.180264 -232.66735894 21.48844792 -224.26367188 12.42871094 C-215.51522835 4.31159838 -205.48286924 0.75882491 -193.74023438 0.94433594 C-192.34925537 0.95956299 -192.34925537 0.95956299 -190.93017578 0.97509766 C-174.44808757 1.34700414 -163.10859409 7.8640435 -149.99023438 17.31933594 C-148.00234155 18.67237277 -145.99917776 19.99766266 -143.99023438 21.31933594 C-143.72210938 20.73667969 -143.45398438 20.15402344 -143.17773438 19.55371094 C-134.74145292 3.68018136 -115.14856534 -5.88521589 -98.78710938 -11.03222656 C-67.08402417 -20.57664738 -26.71367178 -22.55850301 0 0 Z " fill="#385FAE" transform="translate(286.990234375,55.6806640625)"/>
<path d="M0 0 C0.66 0 1.32 0 2 0 C1.48452215 6.03270173 -0.38098458 10.75763393 -3 16.1875 C-3.40154297 17.02466553 -3.80308594 17.86183105 -4.21679688 18.72436523 C-7.74081797 25.85556002 -11.83730295 31.92411135 -17 38 C-17.68449219 38.845625 -18.36898437 39.69125 -19.07421875 40.5625 C-31.67933905 55.47428742 -48.66879032 66.4852346 -68 70 C-68 70.66 -68 71.32 -68 72 C-38.63547459 61.7092228 -16.29472606 44.96019649 -2.58178711 16.66381836 C-0.43182029 12.0910981 1.54520861 7.4592827 3.30859375 2.72265625 C4 1 4 1 5 0 C6.68608966 -0.07205511 8.37500659 -0.08386068 10.0625 -0.0625 C10.98160156 -0.05347656 11.90070313 -0.04445312 12.84765625 -0.03515625 C13.55792969 -0.02355469 14.26820313 -0.01195312 15 0 C14.74069171 1.54364699 14.46690524 3.0848638 14.1875 4.625 C13.96126953 5.91277344 13.96126953 5.91277344 13.73046875 7.2265625 C10.33574503 20.11562046 -0.2018584 34.23956166 -9 44 C-10.0828125 45.22203125 -10.0828125 45.22203125 -11.1875 46.46875 C-17.94248914 53.66814632 -25.60943999 58.91752144 -34 64 C-34.95390625 64.58910156 -35.9078125 65.17820312 -36.890625 65.78515625 C-45.81804106 70.77175579 -58.63586355 75 -69 75 C-68.98839844 75.63421875 -68.97679687 76.2684375 -68.96484375 76.921875 C-68.79180321 94.81921094 -70.45848525 112.52688932 -72.3515625 130.30078125 C-73.38966686 141.49747831 -73.08927042 152.76703431 -73 164 C-71.31583984 164.72703125 -71.31583984 164.72703125 -69.59765625 165.46875 C-49.51341285 174.37091883 -49.51341285 174.37091883 -45.77734375 182.73828125 C-45.52082031 183.48464844 -45.26429688 184.23101562 -45 185 C-48.3 185 -51.6 185 -55 185 C-55.515625 183.824375 -56.03125 182.64875 -56.5625 181.4375 C-58.87130106 176.80340644 -61.96061227 173.23338461 -66 170 C-66.99 169.67 -67.98 169.34 -69 169 C-68.29423828 169.65355469 -68.29423828 169.65355469 -67.57421875 170.3203125 C-63.80605133 173.92464656 -60.91516536 177.04310142 -59 182 C-59 182.99 -59 183.98 -59 185 C-59.80518066 184.98316162 -60.61036133 184.96632324 -61.43994141 184.94897461 C-83.34199263 184.63009475 -83.34199263 184.63009475 -102 195 C-104.46599038 196.54042111 -107.00545244 197.92980021 -109.5625 199.3125 C-117.68630312 203.6848822 -117.68630312 203.6848822 -123.3125 210.75 C-123.869375 211.8225 -124.42625 212.895 -125 214 C-125.33 214 -125.66 214 -126 214 C-126.55624612 210.9009145 -126.37716584 208.71420765 -124.8984375 205.9140625 C-118.3752362 196.75587348 -108.58564801 191.47751315 -99 186 C-106.26 185.67 -113.52 185.34 -121 185 C-117.72899646 176.82249114 -113.38401926 171.72577233 -106 167 C-112.80447096 168.53100597 -117.82811149 172.70291624 -121.62109375 178.4609375 C-122.81969689 180.61366948 -123.94911503 182.77192178 -125 185 C-127.97 185 -130.94 185 -134 185 C-130.23083918 174.40609652 -121.09583898 170.0310302 -111.51171875 165.46875 C-108 164 -108 164 -105 164 C-105.0721875 163.33355469 -105.144375 162.66710937 -105.21875 161.98046875 C-105.89198264 155.29489465 -106.11693011 148.7169852 -106 142 C-100.09079253 144.70092564 -95.28369466 148.22682725 -90.5 152.5625 C-89.97180664 153.03341064 -89.44361328 153.50432129 -88.89941406 153.98950195 C-86.2109389 156.49115535 -84.36205486 158.27160526 -84 162 C-83.855625 163.216875 -83.71125 164.43375 -83.5625 165.6875 C-83.65290916 172.62317415 -88.7295652 177.86176241 -93.375 182.5625 C-94.674375 183.7690625 -94.674375 183.7690625 -96 185 C-95.67 185.33 -95.34 185.66 -95 186 C-85.17359359 178.03800826 -85.17359359 178.03800826 -80.7265625 166.58203125 C-80.52054821 160.96418012 -80.71478072 156.66465866 -84.06640625 152.03125 C-90.77577325 144.98302608 -99.19760315 139.80060156 -107.421875 134.7265625 C-111.64830458 131.89613542 -115.33420677 128.51305184 -119 125 C-119.81404297 124.26330078 -119.81404297 124.26330078 -120.64453125 123.51171875 C-125.24956424 118.37584622 -125.60565078 110.47326929 -125.40625 103.91796875 C-124.22123244 95.40635222 -117.91163203 88.84979487 -112 83 C-110.515 82.01 -110.515 82.01 -109 81 C-107.66370838 81.32126872 -106.33039596 81.65512975 -105 82 C-102.30416243 80.84464104 -99.81692821 79.64320267 -97.25 78.25 C-92.52160268 75.73298241 -87.87566524 73.48564978 -82.83154297 71.67089844 C-78.49584151 70.08272094 -74.35879382 68.00258975 -70.18798828 66.03076172 C-68.57378128 65.27030847 -66.95720958 64.51486994 -65.33935547 63.76220703 C-49.16620999 56.2816931 -49.16620999 56.2816931 -34 47 C-32.59814453 46.17628906 -32.59814453 46.17628906 -31.16796875 45.3359375 C-26.18448727 42.56652757 -26.18448727 42.56652757 -23.4375 37.91015625 C-23.39537208 36.41198208 -23.38165573 34.91277355 -23.39453125 33.4140625 C-22.45345789 27.65581165 -17.00101977 23.00101977 -13 19 C-12.505 21.97 -12.505 21.97 -12 25 C-11.34 25 -10.68 25 -10 25 C-5.64961148 16.83557223 -1.95498446 9.12326082 0 0 Z " fill="#6986C1" transform="translate(306,135)"/>
<path d="M0 0 C19.15300452 -0.69367018 35.08837219 1.30324854 50.25 14.25 C58.14025403 21.73947922 62.87429656 29.61555399 66 40 C66.35707031 41.07636719 66.71414063 42.15273437 67.08203125 43.26171875 C70.48510328 57.12018654 68.19308505 71.8062801 61.3125 84.1875 C49.69172475 102.20262143 31.3899411 113.83789754 13 124 C12.29230469 124.391875 11.58460938 124.78375 10.85546875 125.1875 C9 126 9 126 6 126 C6 126.66 6 127.32 6 128 C5.17757812 128.37511719 4.35515625 128.75023437 3.5078125 129.13671875 C-27.72369456 142.88332626 -27.72369456 142.88332626 -48.3359375 168.71484375 C-49.76628133 173.63690928 -50.01192619 177.76255767 -47.87109375 182.49609375 C-46.98616276 184.07182556 -46.06243306 185.62666793 -45.09375 187.15234375 C-44 189 -44 189 -44 191 C-43.01 191.33 -42.02 191.66 -41 192 C-40.41605469 192.74378906 -39.83210938 193.48757813 -39.23046875 194.25390625 C-36.63569657 197.44852068 -33.67125223 199.6290637 -30.3125 201.9375 C-29.68964111 202.37497559 -29.06678223 202.81245117 -28.42504883 203.26318359 C-25.0552119 205.61967021 -21.6434381 207.89634734 -18.1875 210.125 C-11.80492709 214.34823516 -4.24021991 219.3832523 -2 227 C-1.1382368 234.17031175 -1.63289 240.11540615 -6 246 C-13.63161004 254.68183161 -13.63161004 254.68183161 -19 257 C-18.42864595 253.50331324 -17.29922618 252.03078323 -14.6875 249.6875 C-8.89779638 244.09990102 -6.56452233 239.04444318 -6 231 C-10.95 231 -15.9 231 -21 231 C-21 230.67 -21 230.34 -21 230 C-16.38 230 -11.76 230 -7 230 C-11.90842528 221.81929119 -18.8395415 216.74790313 -27 212 C-27.33 213.65 -27.66 215.3 -28 217 C-28.33 217 -28.66 217 -29 217 C-28.95875 215.96875 -28.9175 214.9375 -28.875 213.875 C-29.26958737 211.10177326 -29.70432936 210.23142028 -31.94140625 208.48046875 C-33.67192742 207.49740273 -35.41520269 206.53658267 -37.16796875 205.59375 C-45.69482936 200.79518569 -54.92181969 193.62630935 -58 184 C-59.12605376 171.06694135 -56.65843166 162.34648475 -48.61328125 152.26171875 C-35.76406357 138.1309518 -16.02408359 129.7128763 1 122 C15.34736656 115.47124927 28.86166321 108.84998356 40.9765625 98.56640625 C43 97 43 97 46 96 C46.495 94.515 46.495 94.515 47 93 C48.66666667 91.33333333 50.33333333 89.66666667 52 88 C56.23867969 83.04956207 59.21217716 78.27918265 61 72 C61.34933594 70.77925781 61.69867188 69.55851562 62.05859375 68.30078125 C63.13750506 63.90480235 63.34457726 59.70018711 63.3125 55.1875 C63.30976074 54.40141357 63.30702148 53.61532715 63.30419922 52.80541992 C63.1914668 46.50082701 62.0907266 40.95602114 60 35 C59.59526267 33.60672242 59.19824048 32.21115614 58.8125 30.8125 C58.544375 29.884375 58.27625 28.95625 58 28 C57.34 28 56.68 28 56 28 C55.4121875 26.329375 55.4121875 26.329375 54.8125 24.625 C50.26797225 15.64756447 40.40519142 10.03403149 31.1875 6.875 C29.13268846 6.22516865 27.07266544 5.59041444 25 5 C25.99 6.98 25.99 6.98 27 9 C26.16082031 8.7834375 25.32164062 8.566875 24.45703125 8.34375 C13.25258879 5.74979548 2.46203493 5.6770558 -9 6 C-9 5.67 -9 5.34 -9 5 C-3.67132017 3.89058633 1.46281855 3.88451931 6.875 3.9375 C8.19371094 3.94426758 8.19371094 3.94426758 9.5390625 3.95117188 C11.69273803 3.96287663 13.84637817 3.98080931 16 4 C16 3.67 16 3.34 16 3 C14.92878906 2.95101562 13.85757813 2.90203125 12.75390625 2.8515625 C11.35674361 2.77654706 9.9596095 2.7009987 8.5625 2.625 C7.85544922 2.5940625 7.14839844 2.563125 6.41992188 2.53125 C4.60760812 2.42719371 2.80182012 2.22080108 1 2 C0.505 1.01 0.505 1.01 0 0 Z " fill="#B8C6E1" transform="translate(228,66)"/>
<path d="M0 0 C0.66 0 1.32 0 2 0 C1.48452215 6.03270173 -0.38098458 10.75763393 -3 16.1875 C-3.40154297 17.02466553 -3.80308594 17.86183105 -4.21679688 18.72436523 C-7.74081797 25.85556002 -11.83730295 31.92411135 -17 38 C-17.68449219 38.845625 -18.36898437 39.69125 -19.07421875 40.5625 C-31.67933905 55.47428742 -48.66879032 66.4852346 -68 70 C-68 70.66 -68 71.32 -68 72 C-38.63547459 61.7092228 -16.29472606 44.96019649 -2.58178711 16.66381836 C-0.43182029 12.0910981 1.54520861 7.4592827 3.30859375 2.72265625 C4 1 4 1 5 0 C6.68608966 -0.07205511 8.37500659 -0.08386068 10.0625 -0.0625 C10.98160156 -0.05347656 11.90070313 -0.04445312 12.84765625 -0.03515625 C13.55792969 -0.02355469 14.26820313 -0.01195312 15 0 C14.74069171 1.54364699 14.46690524 3.0848638 14.1875 4.625 C13.96126953 5.91277344 13.96126953 5.91277344 13.73046875 7.2265625 C10.33574503 20.11562046 -0.2018584 34.23956166 -9 44 C-10.0828125 45.22203125 -10.0828125 45.22203125 -11.1875 46.46875 C-17.94248914 53.66814632 -25.60943999 58.91752144 -34 64 C-34.95390625 64.58910156 -35.9078125 65.17820312 -36.890625 65.78515625 C-45.81804106 70.77175579 -58.63586355 75 -69 75 C-68.98839844 75.63421875 -68.97679687 76.2684375 -68.96484375 76.921875 C-68.80265971 93.69633896 -70.17446151 110.33974584 -72 127 C-72.33 127 -72.66 127 -73 127 C-74.21276948 122.23624147 -74.19120499 117.56975007 -74.1875 112.6875 C-74.18814453 111.80465332 -74.18878906 110.92180664 -74.18945312 110.01220703 C-74.13444982 103.07053963 -73.43358729 96.38568356 -72.4453125 89.5234375 C-71.87250219 84.99120156 -71.80276631 80.55828963 -72 76 C-73.423125 75.62875 -73.423125 75.62875 -74.875 75.25 C-78 74 -78 74 -79.1953125 71.921875 C-79.59363281 70.97054687 -79.59363281 70.97054687 -80 70 C-79.1028125 69.6596875 -78.205625 69.319375 -77.28125 68.96875 C-62.53268973 63.27884861 -48.50511701 56.21561285 -35 48 C-33.9171875 47.35160156 -32.834375 46.70320313 -31.71875 46.03515625 C-26.4167819 42.88672716 -26.4167819 42.88672716 -23.3828125 37.84765625 C-23.33571327 36.35879722 -23.32829438 34.86818579 -23.359375 33.37890625 C-22.49381161 27.64925297 -16.968492 22.968492 -13 19 C-12.505 21.97 -12.505 21.97 -12 25 C-11.34 25 -10.68 25 -10 25 C-5.64961148 16.83557223 -1.95498446 9.12326082 0 0 Z " fill="#6886C1" transform="translate(306,135)"/>
<path d="M0 0 C5.28 0 10.56 0 16 0 C16.49628906 1.29292969 16.99257812 2.58585938 17.50390625 3.91796875 C23.09675786 18.31345833 28.83451309 31.16874003 39 43 C39.95915658 44.18683516 40.9176243 45.37422781 41.875 46.5625 C43.76284333 49.03988626 43.76284333 49.03988626 46 50 C46 50.66 46 51.32 46 52 C46.56332031 52.25523437 47.12664062 52.51046875 47.70703125 52.7734375 C50.28538389 54.1526585 52.39078762 55.815032 54.6875 57.625 C61.8668642 62.95099573 69.85197377 66.40837296 78 70 C75.375 75.75 75.375 75.75 72 78 C72.66 76.35 73.32 74.7 74 73 C72.80375 72.79375 71.6075 72.5875 70.375 72.375 C54.09065679 68.693767 40.8629859 59.35860725 29 48 C28.32453125 47.38769531 27.6490625 46.77539062 26.953125 46.14453125 C14.00849781 34.00247095 4.29622689 17.18490758 0 0 Z " fill="#6C89C2" transform="translate(111,135)"/>
<path d="M0 0 C5.90920747 2.70092564 10.71630534 6.22682725 15.5 10.5625 C16.02819336 11.03341064 16.55638672 11.50432129 17.10058594 11.98950195 C19.7890611 14.49115535 21.63794514 16.27160526 22 20 C22.144375 21.216875 22.28875 22.43375 22.4375 23.6875 C22.37650743 29.13616958 19.36750102 32.93124063 16 37 C15.3709375 37.9075 14.741875 38.815 14.09375 39.75 C9.15963908 43.33844431 4.11222158 42.52824616 -1.8125 42.3125 C-2.98232422 42.28994141 -4.15214844 42.26738281 -5.35742188 42.24414062 C-8.23958769 42.18532091 -11.11913681 42.10317141 -14 42 C-10.91827707 34.13834693 -7.09436884 29.59047395 0 25 C-6.80447096 26.53100597 -11.82811149 30.70291624 -15.62109375 36.4609375 C-16.81969689 38.61366948 -17.94911503 40.77192178 -19 43 C-21.97 43 -24.94 43 -28 43 C-24.23083918 32.40609652 -15.09583898 28.0310302 -5.51171875 23.46875 C-2 22 -2 22 1 22 C0.9278125 21.33355469 0.855625 20.66710937 0.78125 19.98046875 C0.10801736 13.29489465 -0.11693011 6.7169852 0 0 Z " fill="#365DAD" transform="translate(200,277)"/>
<path d="M0 0 C7.59 0 15.18 0 23 0 C23.391875 2.124375 23.78375 4.24875 24.1875 6.4375 C25.53394225 12.77860182 27.56071241 17.57432518 31 23 C31.34160156 23.69996094 31.68320313 24.39992187 32.03515625 25.12109375 C33.29043392 27.56558185 35.03221694 29.09009292 37 31 C37.639375 31.845625 38.27875 32.69125 38.9375 33.5625 C41.14194049 36.16774785 43.07584454 37.2784193 46 39 C47.80385901 40.29569224 49.59516556 41.60899894 51.375 42.9375 C55.4647212 45.94253195 59.5252374 48.61345995 64 51 C64 51.66 64 52.32 64 53 C52.05005214 53.60297902 40.74113948 47.28460612 31 41 C30.31550781 40.58234375 29.63101563 40.1646875 28.92578125 39.734375 C27.25 38.6875 27.25 38.6875 25 37 C25 36.34 25 35.68 25 35 C24.42765625 34.75894531 23.8553125 34.51789063 23.265625 34.26953125 C12.23616898 28.08923262 5.03742214 13.12430723 0 2 C0 1.34 0 0.68 0 0 Z " fill="#7B95C8" transform="translate(138,143)"/>
<path d="M0 0 C0.99 0.495 0.99 0.495 2 1 C1.525625 1.4125 1.05125 1.825 0.5625 2.25 C-1.16266518 4.182185 -1.56584875 5.48192275 -2 8 C1.51595875 6.06966971 4.67627245 4.25898204 7.8125 1.75 C10 0 10 0 12 0 C12.26977539 2.25390625 12.26977539 2.25390625 12 5 C6.43166838 11.2612628 -1.55040289 15.27093046 -8.9375 19 C-9.92733887 19.50909912 -10.91717773 20.01819824 -11.93701172 20.54272461 C-19.85541782 24.55768216 -27.92479855 28.08209929 -36.1640625 31.37890625 C-39.31289434 32.65617357 -42.09199499 34.23699202 -45 36 C-47.08812003 36.8528941 -49.19382743 37.66361361 -51.3125 38.4375 C-56.40362431 40.34667162 -61.19742176 42.45745858 -66 45 C-66 44.34 -66 43.68 -66 43 C-73.79361758 46.81728208 -79.69280562 52.77763928 -83.34765625 60.73046875 C-85.36504258 67.74904034 -84.46142484 75.23108169 -82 82 C-85.47869967 79.01825742 -87.48565976 75.54144591 -88.3984375 71.03125 C-89.01975609 62.86534854 -85.01109116 55.7910726 -80.0546875 49.55078125 C-67.68219332 36.47063519 -49.43196287 25.45071392 -32 21 C-32 20.34 -32 19.68 -32 19 C-31.01902344 18.53851563 -30.03804687 18.07703125 -29.02734375 17.6015625 C-13.51045468 10.33738044 -13.51045468 10.33738044 0 0 Z " fill="#92A8D2" transform="translate(266,173)"/>
<path d="M0 0 C0.66 0 1.32 0 2 0 C1.48452215 6.03270173 -0.38098458 10.75763393 -3 16.1875 C-3.40154297 17.02466553 -3.80308594 17.86183105 -4.21679688 18.72436523 C-7.74081797 25.85556002 -11.83730295 31.92411135 -17 38 C-17.68449219 38.845625 -18.36898437 39.69125 -19.07421875 40.5625 C-32.72179848 56.70751115 -51.42923592 67.38433773 -72 72 C-74.33217458 72.07352669 -76.66864297 72.0960147 -79 72 C-79.33 71.34 -79.66 70.68 -80 70 C-79.1028125 69.6596875 -78.205625 69.319375 -77.28125 68.96875 C-62.53268973 63.27884861 -48.50511701 56.21561285 -35 48 C-33.9171875 47.35160156 -32.834375 46.70320313 -31.71875 46.03515625 C-26.4167819 42.88672716 -26.4167819 42.88672716 -23.3828125 37.84765625 C-23.33571327 36.35879722 -23.32829438 34.86818579 -23.359375 33.37890625 C-22.49381161 27.64925297 -16.968492 22.968492 -13 19 C-12.505 21.97 -12.505 21.97 -12 25 C-11.34 25 -10.68 25 -10 25 C-5.64961148 16.83557223 -1.95498446 9.12326082 0 0 Z " fill="#607FBE" transform="translate(306,135)"/>
<path d="M0 0 C0.8146875 0.00257812 1.629375 0.00515625 2.46875 0.0078125 C3.2834375 0.00523438 4.098125 0.00265625 4.9375 0 C6.96875 0.1328125 6.96875 0.1328125 7.96875 1.1328125 C8.11068337 4.13612268 8.01111378 7.12498384 7.96875 10.1328125 C10.93875 10.1328125 13.90875 10.1328125 16.96875 10.1328125 C16.96875 13.4328125 16.96875 16.7328125 16.96875 20.1328125 C13.99875 20.1328125 11.02875 20.1328125 7.96875 20.1328125 C7.989375 21.5971875 8.01 23.0615625 8.03125 24.5703125 C8.05267007 26.09113768 8.04054964 27.61353212 7.96875 29.1328125 C6.96875 30.1328125 6.96875 30.1328125 4.9375 30.265625 C4.1228125 30.26304687 3.308125 30.26046875 2.46875 30.2578125 C1.6540625 30.26039063 0.839375 30.26296875 0 30.265625 C-2.03125 30.1328125 -2.03125 30.1328125 -3.03125 29.1328125 C-3.17318337 26.12950232 -3.07361378 23.14064116 -3.03125 20.1328125 C-6.00125 20.1328125 -8.97125 20.1328125 -12.03125 20.1328125 C-12.03125 16.8328125 -12.03125 13.5328125 -12.03125 10.1328125 C-9.06125 10.1328125 -6.09125 10.1328125 -3.03125 10.1328125 C-3.051875 8.6684375 -3.0725 7.2040625 -3.09375 5.6953125 C-3.11517007 4.17448732 -3.10304964 2.65209288 -3.03125 1.1328125 C-2.03125 0.1328125 -2.03125 0.1328125 0 0 Z " fill="#6080BE" transform="translate(214.03125,97.8671875)"/>
<path d="M0 0 C6.16432998 2.44447568 8.49589209 8.83551322 11.203125 14.53125 C17.51054408 29.40546215 18.95468492 49.65672336 14.19921875 65.17578125 C11.57767232 71.34965119 8.34082134 77.19125601 5 83 C4.01 82.67 3.02 82.34 2 82 C1.875 74.25 1.875 74.25 3 72 C3.66 72 4.32 72 5 72 C5.1546875 70.7625 5.1546875 70.7625 5.3125 69.5 C5.97450488 66.12979335 6.96762246 63.2777061 8.28125 60.125 C13.76478298 43.91281554 9.49578668 25.06693955 2.55859375 10.140625 C1.30841935 7.2020652 1.30841935 7.2020652 0 6 C-0.04080783 4.00041636 -0.04254356 1.99954746 0 0 Z " fill="#10409E" transform="translate(291,78)"/>
<path d="M0 0 C5.90920747 2.70092564 10.71630534 6.22682725 15.5 10.5625 C16.02819336 11.03341064 16.55638672 11.50432129 17.10058594 11.98950195 C20.71093626 15.34896953 21.87853957 17.33758735 22.09765625 22.140625 C22.06510417 24.09375 22.03255208 26.046875 22 28 C21.67 28 21.34 28 21 28 C21 25.69 21 23.38 21 21 C15.34836299 21.42443124 10.35731133 22.06224909 5 24 C3.54241477 24.25432538 2.08400214 24.5039332 0.625 24.75 C-6.08608928 26.20745878 -10.85595721 30.160512 -14.875 35.625 C-17.09986791 39.03620942 -17.09986791 39.03620942 -19 43 C-21.97 43 -24.94 43 -28 43 C-24.23083918 32.40609652 -15.09583898 28.0310302 -5.51171875 23.46875 C-2 22 -2 22 1 22 C0.9278125 21.33355469 0.855625 20.66710937 0.78125 19.98046875 C0.10801736 13.29489465 -0.11693011 6.7169852 0 0 Z " fill="#5173B8" transform="translate(200,277)"/>
<path d="M0 0 C-1.02856488 3.48784029 -2.1875799 4.10303086 -5.44921875 5.89453125 C-6.85858675 6.5412983 -8.27154825 7.18027659 -9.6875 7.8125 C-15.86550915 10.7283725 -20.71895154 13.53934376 -25 19 C-26.2065625 20.4540625 -26.2065625 20.4540625 -27.4375 21.9375 C-28.2109375 22.9584375 -28.2109375 22.9584375 -29 24 C-29.33 23.34 -29.66 22.68 -30 22 C-32.52661325 26.73739985 -32.57964683 31.75760586 -32 37 C-30.74824563 40.30061649 -30.06589351 40.956071 -27 43 C-27.721875 43.33 -28.44375 43.66 -29.1875 44 C-32.05156446 46.03666806 -32.80674226 47.19601258 -34.4375 50.1875 C-35.6640625 52.32421875 -35.6640625 52.32421875 -37 54 C-40.3125 54.5 -40.3125 54.5 -43 54 C-43 53.34 -43 52.68 -43 52 C-42.236875 51.401875 -41.47375 50.80375 -40.6875 50.1875 C-37.91957138 47.93453484 -36.45868303 46.24151784 -35 43 C-35.18923077 40.16153841 -36.32194159 38.40381186 -37.6875 35.875 C-39.77574809 31.03688066 -38.72770567 26.82719481 -37 22 C-32.0665895 11.84297838 -22.63988345 4.03012833 -12.76171875 -1.11328125 C-8.20556582 -2.57614789 -4.40662575 -1.58676762 0 0 Z " fill="#96AAD3" transform="translate(181,67)"/>
<path d="M0 0 C0.26977539 2.25390625 0.26977539 2.25390625 0 5 C-5.56833162 11.2612628 -13.55040289 15.27093046 -20.9375 19 C-21.92733887 19.50909912 -22.91717773 20.01819824 -23.93701172 20.54272461 C-31.85541782 24.55768216 -39.92479855 28.08209929 -48.1640625 31.37890625 C-51.31282919 32.65742093 -54.09641362 34.22743417 -57 36 C-59.16650229 36.96524704 -61.35578404 37.88061017 -63.5625 38.75 C-64.67753906 39.19859375 -65.79257813 39.6471875 -66.94140625 40.109375 C-69.92889881 40.97929621 -71.16885111 41.13522841 -74 40 C-69.71515361 36.17945585 -65.53711707 33.48091109 -60.375 31 C-59.66915771 30.65388672 -58.96331543 30.30777344 -58.23608398 29.95117188 C-53.29315194 27.55337644 -48.27727107 25.39975075 -43.1875 23.33203125 C-29.05220085 17.4250006 -15.48418297 10.68962055 -3.48828125 1.03125 C-2 0 -2 0 0 0 Z " fill="#B4C2DF" transform="translate(278,173)"/>
<path d="M0 0 C0.66 0 1.32 0 2 0 C2.34028527 4.27030858 2.67093409 8.54131339 3 12.8125 C3.09539062 14.00810547 3.19078125 15.20371094 3.2890625 16.43554688 C3.83884038 23.64156405 4.13319338 30.7733342 4 38 C-2.04308097 35.13682937 -5.67528686 30.27685071 -9 24.5625 C-10.51712197 19.15775299 -10.31232321 14.75267796 -7.87890625 9.6484375 C-6.6807851 7.63616281 -5.54233074 5.7633501 -4 4 C-3.34 4 -2.68 4 -2 4 C-2 3.34 -2 2.68 -2 2 C-1.34 2 -0.68 2 0 2 C0 1.34 0 0.68 0 0 Z " fill="#F4F6F9" transform="translate(194,222)"/>
<path d="M0 0 C5.94282987 1.30452363 9.23645557 4.43812796 13 9 C14.99845234 12.35224263 16 14.11175634 16 18 C7.09 18 -1.82 18 -11 18 C-9.39922349 14.79844699 -8.39077425 13.16980767 -6.0625 10.6875 C-3.08930138 7.32902136 -1.54123066 4.19557235 0 0 Z " fill="#5375B9" transform="translate(231,302)"/>
<path d="M0 0 C-3.68931407 1.22977136 -5.08996134 0.57528259 -8.8125 -0.4375 C-28.08390814 -4.81101128 -53.6772153 -3.53855216 -72.16015625 3.4140625 C-74 4 -74 4 -77 4 C-76.74609375 2.12890625 -76.74609375 2.12890625 -76 0 C-57.67789536 -12.86445645 -18.71769406 -10.17519506 0 0 Z " fill="#E7EBF4" transform="translate(266,63)"/>
<path d="M0 0 C0.85546875 2.7265625 0.85546875 2.7265625 1 5 C-1.69918901 4.48092519 -3.54476915 3.70491671 -6 2.375 C-8.81762422 0.76190058 -8.81762422 0.76190058 -11.375 1.3125 C-11.91125 1.539375 -12.4475 1.76625 -13 2 C-13 1.34 -13 0.68 -13 0 C-29.41228159 -6.89315827 -45.47444996 -6.35532151 -63 -6 C-62.67 -6.99 -62.34 -7.98 -62 -9 C-42.44870585 -12.57048671 -16.42802008 -12.8384846 0 0 Z " fill="#99ADD4" transform="translate(277,63)"/>
<path d="M0 0 C0.66 0.33 1.32 0.66 2 1 C1.55269531 1.37511719 1.10539062 1.75023437 0.64453125 2.13671875 C-0.26232422 2.90435547 -0.26232422 2.90435547 -1.1875 3.6875 C-1.77917969 4.18636719 -2.37085938 4.68523437 -2.98046875 5.19921875 C-5.10414888 7.03460788 -5.10414888 7.03460788 -7.23828125 9.421875 C-10.55379366 12.51697852 -14.01306864 14.45501691 -18 16.5625 C-27.00694051 21.13250561 -27.00694051 21.13250561 -33.3125 28.75 C-33.869375 29.8225 -34.42625 30.895 -35 32 C-35.33 32 -35.66 32 -36 32 C-36.55624612 28.9009145 -36.37716584 26.71420765 -34.8984375 23.9140625 C-28.3752362 14.75587348 -18.58564801 9.47751315 -9 4 C-16.26 3.67 -23.52 3.34 -31 3 C-30.67 2.34 -30.34 1.68 -30 1 C-22.08 1.33 -14.16 1.66 -6 2 C-6 2.99 -6 3.98 -6 5 C-4.02 3.35 -2.04 1.7 0 0 Z " fill="#A4B6D9" transform="translate(216,317)"/>
<path d="M0 0 C1.66621616 0.03874921 3.33394172 0.0450286 5 0 C-0 5 -0 5 -2.5625 7.375 C-4.589589 9.55801892 -5.74923163 11.18678137 -7.125 13.75 C-9 17 -9 17 -12 18 C-13.72795352 18.06802967 -15.45835365 18.08495645 -17.1875 18.0625 C-18.53908203 18.04896484 -18.53908203 18.04896484 -19.91796875 18.03515625 C-20.60503906 18.02355469 -21.29210937 18.01195312 -22 18 C-19.116587 9.349761 -13.85265684 4.38219426 -6 0 C-3 -1 -3 -1 0 0 Z " fill="#3F64B1" transform="translate(208,301)"/>
<path d="M0 0 C0 3.3 0 6.6 0 10 C-2.97 10 -5.94 10 -9 10 C-8.979375 11.464375 -8.95875 12.92875 -8.9375 14.4375 C-8.91607993 15.95832518 -8.92820036 17.48071962 -9 19 C-10 20 -10 20 -12.06640625 20.09765625 C-15.53320312 20.04882812 -15.53320312 20.04882812 -19 20 C-19 16.7 -19 13.4 -19 10 C-17.8553125 9.5978125 -17.8553125 9.5978125 -16.6875 9.1875 C-13.22932941 7.65947113 -11.62380009 6.24760019 -9.9375 2.875 C-7.90486222 -1.19027555 -4.02273165 -0.07449503 0 0 Z " fill="#4368B3" transform="translate(231,108)"/>
<path d="M0 0 C0.66 0.33 1.32 0.66 2 1 C1.319375 1.53625 0.63875 2.0725 -0.0625 2.625 C-2.07457595 4.25178481 -4.0527482 5.92115467 -6 7.625 C-8.81217646 10.06796292 -11.73826492 12.31112633 -14.72705078 14.53369141 C-23.14999668 20.83106375 -32.34118647 27.90176451 -34.5625 38.74609375 C-35.02239115 42.16653418 -35.09769856 45.42554076 -35.0625 48.875 C-35.05347656 50.02742188 -35.04445312 51.17984375 -35.03515625 52.3671875 C-35.02355469 53.23601562 -35.01195312 54.10484375 -35 55 C-37 54 -37 54 -37.8515625 51.71484375 C-38.10679687 50.79832031 -38.36203125 49.88179687 -38.625 48.9375 C-38.88539063 48.01839844 -39.14578125 47.09929687 -39.4140625 46.15234375 C-39.60742188 45.44207031 -39.80078125 44.73179687 -40 44 C-39.505 43.505 -39.505 43.505 -39 43 C-38.938125 41.865625 -38.87625 40.73125 -38.8125 39.5625 C-37.82737182 31.09039768 -31.30688296 22.51492277 -25 17 C-23.6672582 16.6643094 -22.33396885 16.33078089 -21 16 C-19.6296945 14.02514795 -18.29327628 12.02613283 -17 10 C-16.34 10 -15.68 10 -15 10 C-15 9.34 -15 8.68 -15 8 C-12.54665445 6.63603538 -10.08808766 5.28365831 -7.625 3.9375 C-6.92632812 3.54755859 -6.22765625 3.15761719 -5.5078125 2.75585938 C-3.70389816 1.77584822 -1.85416518 0.88124929 0 0 Z " fill="#7E98CA" transform="translate(206,195)"/>
<path d="M0 0 C19.28350417 -0.69839653 36.13022075 1.33587853 51 15 C50.34 15.99 49.68 16.98 49 18 C48.44054687 17.48050781 47.88109375 16.96101563 47.3046875 16.42578125 C40.31339822 10.34493318 33.7598193 7.62542134 25 5 C25.66 6.32 26.32 7.64 27 9 C25.74123047 8.67515625 25.74123047 8.67515625 24.45703125 8.34375 C13.25258879 5.74979548 2.46203493 5.6770558 -9 6 C-9 5.67 -9 5.34 -9 5 C-3.67132017 3.89058633 1.46281855 3.88451931 6.875 3.9375 C7.75414062 3.94201172 8.63328125 3.94652344 9.5390625 3.95117188 C11.69273803 3.96287663 13.84637817 3.98080931 16 4 C16 3.67 16 3.34 16 3 C14.92878906 2.95101562 13.85757813 2.90203125 12.75390625 2.8515625 C11.35674361 2.77654706 9.9596095 2.7009987 8.5625 2.625 C7.85544922 2.5940625 7.14839844 2.563125 6.41992188 2.53125 C4.60760812 2.42719371 2.80182012 2.22080108 1 2 C0.67 1.34 0.34 0.68 0 0 Z " fill="#A9B9DB" transform="translate(228,66)"/>
<path d="M0 0 C0.66 0 1.32 0 2 0 C1.48453475 6.03255421 -0.38062349 10.75785903 -3 16.1875 C-3.39936768 17.01886475 -3.79873535 17.85022949 -4.21020508 18.70678711 C-12.95588773 36.38138876 -12.95588773 36.38138876 -20.26953125 39.30859375 C-21.62111328 39.65083984 -21.62111328 39.65083984 -23 40 C-23.61953699 35.19858836 -23.88743612 32.42840745 -21.2890625 28.24609375 C-18.67183488 25.00054253 -15.94738626 21.94738626 -13 19 C-12.67 20.98 -12.34 22.96 -12 25 C-11.34 25 -10.68 25 -10 25 C-5.64961148 16.83557223 -1.95498446 9.12326082 0 0 Z M-26 41 C-25.34 41.33 -24.68 41.66 -24 42 C-24.99 42 -25.98 42 -27 42 C-26.67 41.67 -26.34 41.34 -26 41 Z " fill="#5D7DBD" transform="translate(306,135)"/>
<path d="M0 0 C-1.02856488 3.48784029 -2.1875799 4.10303086 -5.44921875 5.89453125 C-6.85858675 6.5412983 -8.27154825 7.18027659 -9.6875 7.8125 C-15.86550915 10.7283725 -20.71895154 13.53934376 -25 19 C-26.2065625 20.4540625 -26.2065625 20.4540625 -27.4375 21.9375 C-28.2109375 22.9584375 -28.2109375 22.9584375 -29 24 C-29.66 22.68 -30.32 21.36 -31 20 C-26.02941178 13.20132311 -21.01974333 7.67982889 -14 3 C-14.66 2.34 -15.32 1.68 -16 1 C-10.33038134 -2.87921277 -6.22467519 -1.70994042 0 0 Z " fill="#869ECC" transform="translate(181,67)"/>
<path d="M0 0 C2.10759956 3.41667057 2.10759956 3.41667057 1.63549805 5.97607422 C1.20297729 7.00498779 1.20297729 7.00498779 0.76171875 8.0546875 C0.28037476 9.21387695 0.28037476 9.21387695 -0.21069336 10.39648438 C-0.57428955 11.21439453 -0.93788574 12.03230469 -1.3125 12.875 C-1.68060791 13.72126953 -2.04871582 14.56753906 -2.42797852 15.43945312 C-7.86243316 27.56643351 -15.20983094 38.03356962 -24 48 C-24.59941406 48.69480469 -25.19882812 49.38960937 -25.81640625 50.10546875 C-37.04113217 62.25144647 -54.64142557 72.4170672 -71 75 C-71 74.34 -71 73.68 -71 73 C-69.93523437 72.6596875 -68.87046875 72.319375 -67.7734375 71.96875 C-41.00778349 63.14923744 -20.83414456 46.41870032 -7.98046875 21.1171875 C-4.64525025 14.28797144 -1.8275639 7.39728247 0 0 Z " fill="#C5D0E6" transform="translate(309,132)"/>
<path d="M0 0 C4.98128174 0.55177275 8.99667006 2.16288459 13.375 4.5 C14.03185791 4.84949707 14.68871582 5.19899414 15.36547852 5.55908203 C20.98465063 8.70392845 25.45897365 12.54704569 29 18 C29 18.66 29 19.32 29 20 C25.7 20 22.4 20 19 20 C18.484375 18.824375 17.96875 17.64875 17.4375 16.4375 C13.50208535 8.63571306 7.87307501 4.45310307 0 1 C0 0.67 0 0.34 0 0 Z " fill="#4D70B7" transform="translate(232,300)"/>
<path d="M0 0 C2.52230627 1.26115314 2.88890155 2.37533425 4.125 4.875 C4.65480469 5.92300781 4.65480469 5.92300781 5.1953125 6.9921875 C6 9 6 9 6 12 C8.64 11.67 11.28 11.34 14 11 C14 11.66 14 12.32 14 13 C5.75 13 -2.5 13 -11 13 C-9.02 10.69 -7.04 8.38 -5 6 C-3.98940479 4.33973644 -2.98546999 2.67529898 -2 1 C-1.34 0.67 -0.68 0.34 0 0 Z " fill="#3960AF" transform="translate(231,306)"/>
<path d="M0 0 C0 0.66 0 1.32 0 2 C-1.35546875 3.19140625 -1.35546875 3.19140625 -3.1875 4.5625 C-7.42532278 8.03372476 -9.64693168 12.12036524 -12 17 C-14.97 17 -17.94 17 -21 17 C-18.64426855 10.1241341 -13.4031043 5.23438944 -7.25 1.5 C-4 0 -4 0 0 0 Z " fill="#4167B2" transform="translate(193,303)"/>
<path d="M0 0 C0.66 0 1.32 0 2 0 C1.59440216 17.07467983 1.07836241 34.03007004 -1 51 C-1.33 51 -1.66 51 -2 51 C-6.00430844 34.82130219 -2.15408762 16.18621159 0 0 Z " fill="#96AAD3" transform="translate(235,211)"/>
<path d="M0 0 C0 2.95274099 -0.43891831 4.49058403 -1.5 7.1875 C-1.7784375 7.90292969 -2.056875 8.61835938 -2.34375 9.35546875 C-2.5603125 9.89816406 -2.776875 10.44085938 -3 11 C-3.66 11 -4.32 11 -5 11 C-5.103125 11.7425 -5.20625 12.485 -5.3125 13.25 C-6.04933797 16.1973519 -6.94799142 17.78383074 -9 20 C-9.66 20 -10.32 20 -11 20 C-11.33 20.99 -11.66 21.98 -12 23 C-12.66 23 -13.32 23 -14 23 C-14.24492187 23.58265625 -14.48984375 24.1653125 -14.7421875 24.765625 C-16.20435874 27.36302236 -17.84740414 28.83975831 -20.125 30.75 C-21.21167969 31.67039063 -21.21167969 31.67039063 -22.3203125 32.609375 C-23.15175781 33.29773438 -23.15175781 33.29773438 -24 34 C-24.66 33.67 -25.32 33.34 -26 33 C-25.52691406 32.64550781 -25.05382812 32.29101562 -24.56640625 31.92578125 C-17.9094847 26.56650522 -13.61371771 20.08330106 -9 13 C-8.34 12.01 -7.68 11.02 -7 10 C-6.01 10 -5.02 10 -4 10 C-3.855625 9.236875 -3.71125 8.47375 -3.5625 7.6875 C-3 5 -3 5 -2 2 C-13.88 2.33 -25.76 2.66 -38 3 C-38 2.34 -38 1.68 -38 1 C-25.46 0.67 -12.92 0.34 0 0 Z " fill="#6B88C2" transform="translate(285,134)"/>
<path d="M0 0 C0.33 0.99 0.66 1.98 1 3 C0.01 3.33 -0.98 3.66 -2 4 C-2 3.34 -2 2.68 -2 2 C-9.79361758 5.81728208 -15.69280562 11.77763928 -19.34765625 19.73046875 C-21.36504258 26.74904034 -20.46142484 34.23108169 -18 41 C-21.47869967 38.01825742 -23.48565976 34.54144591 -24.3984375 30.03125 C-25.02915746 21.74178769 -20.9052906 14.57335207 -15.80859375 8.3046875 C-11.09236961 3.34108105 -7.16020796 0 0 0 Z " fill="#849CCC" transform="translate(202,214)"/>
<path d="M0 0 C12.19226024 -0.73153561 25.26215468 2.38988165 35 10 C35.85546875 12.7265625 35.85546875 12.7265625 36 15 C32.94567202 14.37277193 30.66843305 13.34701675 28 11.75 C19.1423081 6.72580099 9.87717403 3.39152048 0 1 C0 0.67 0 0.34 0 0 Z " fill="#AABADB" transform="translate(242,53)"/>
<path d="M0 0 C2 1 2 1 3 3 C1.7934375 3.53109375 0.586875 4.0621875 -0.65625 4.609375 C-2.27087811 5.32281533 -3.88545892 6.03636272 -5.5 6.75 C-6.68722656 7.27207031 -6.68722656 7.27207031 -7.8984375 7.8046875 C-13.00802872 10.06630984 -18.02113167 12.46498108 -23 15 C-24.28073264 15.64165868 -25.56197565 16.28229977 -26.84375 16.921875 C-27.44960937 17.22480469 -28.05546875 17.52773437 -28.6796875 17.83984375 C-31.453125 19.2265625 -34.2265625 20.61328125 -37 22 C-36.00906046 19.52265115 -35.42700848 18.24785625 -33.08203125 16.88671875 C-32.39496094 16.59410156 -31.70789063 16.30148438 -31 16 C-29.906875 15.278125 -28.81375 14.55625 -27.6875 13.8125 C-22.57528692 10.57060878 -17.07839334 8.15465678 -11.58203125 5.65234375 C-8.73415928 4.33865799 -5.95883313 2.96419611 -3.1875 1.5 C-2.135625 1.005 -1.08375 0.51 0 0 Z " fill="#98ACD4" transform="translate(237,181)"/>
<path d="M0 0 C0.52078125 0.23460938 1.0415625 0.46921875 1.578125 0.7109375 C-0.96964016 4.53258524 -4.07321843 5.61240948 -8.109375 7.4609375 C-14.30301609 10.41320084 -19.02886013 13.33867474 -23.421875 18.7109375 C-24.41255159 19.72017478 -25.41007683 20.72287653 -26.421875 21.7109375 C-23.30032034 12.9736448 -16.99776101 7.63613122 -9.171875 3.0859375 C-8.56956055 2.73104248 -7.96724609 2.37614746 -7.34667969 2.01049805 C-4.73650529 0.5756292 -3.00928177 -0.35917234 0 0 Z " fill="#DDE4F0" transform="translate(179.421875,67.2890625)"/>
<path d="M0 0 C0.75410156 0.04833984 1.50820312 0.09667969 2.28515625 0.14648438 C3.45111328 0.2305957 3.45111328 0.2305957 4.640625 0.31640625 C5.82978516 0.3947168 5.82978516 0.3947168 7.04296875 0.47460938 C8.99256497 0.60379949 10.94165386 0.7406059 12.890625 0.87890625 C12.890625 3.51890625 12.890625 6.15890625 12.890625 8.87890625 C12.560625 8.87890625 12.230625 8.87890625 11.890625 8.87890625 C11.890625 6.56890625 11.890625 4.25890625 11.890625 1.87890625 C6.23898799 2.30333749 1.24793633 2.94115534 -4.109375 4.87890625 C-6.41863803 5.43025279 -8.73470375 5.92841364 -11.05859375 6.4140625 C-13.29089992 6.8845871 -13.29089992 6.8845871 -16.109375 7.87890625 C-16.769375 7.21890625 -17.429375 6.55890625 -18.109375 5.87890625 C-11.484375 2.87890625 -11.484375 2.87890625 -8.109375 2.87890625 C-8.109375 2.21890625 -8.109375 1.55890625 -8.109375 0.87890625 C-5.27553392 0.05375841 -2.94002249 -0.20045608 0 0 Z " fill="#7E98CA" transform="translate(209.109375,296.12109375)"/>
<path d="M0 0 C1.98676548 2.98014822 2.76575384 4.4809839 3 8 C1.671875 10.23828125 1.671875 10.23828125 -0.25 12.3125 C-0.87390625 13.00988281 -1.4978125 13.70726562 -2.140625 14.42578125 C-4 16 -4 16 -7 16 C-6.71601983 9.32646591 -3.92194468 5.28922815 0 0 Z " fill="#4569B3" transform="translate(292,154)"/>
<path d="M0 0 C-0.58007812 0.32871094 -1.16015625 0.65742188 -1.7578125 0.99609375 C-7.29644085 4.36862487 -10.51948751 7.58716207 -13.7109375 13.2421875 C-14.13632813 13.82226562 -14.56171875 14.40234375 -15 15 C-15.99 15 -16.98 15 -18 15 C-18.66 15.33 -19.32 15.66 -20 16 C-18.15794937 9.45048664 -13.01231508 3.97531626 -7.3125 0.4375 C-3.85925832 -1.06107658 -3.33483667 -1.09708134 0 0 Z " fill="#DFE5F1" transform="translate(202,302)"/>
<path d="M0 0 C7.34160733 1.46832147 11.8668836 7.02656501 16.0625 12.875 C16.5265625 13.926875 16.5265625 13.926875 17 15 C16.67 15.66 16.34 16.32 16 17 C15.34 16.67 14.68 16.34 14 16 C13.67 16.66 13.34 17.32 13 18 C12.731875 17.35933594 12.46375 16.71867187 12.1875 16.05859375 C9.50165711 10.13030238 6.69895948 6.30324913 1.57421875 2.27734375 C1.05472656 1.85582031 0.53523437 1.43429687 0 1 C0 0.67 0 0.34 0 0 Z " fill="#DEE4F0" transform="translate(234,302)"/>
<path d="M0 0 C1.98 0.66 3.96 1.32 6 2 C6.33 4.31 6.66 6.62 7 9 C4.69 9.33 2.38 9.66 0 10 C0 6.7 0 3.4 0 0 Z " fill="#5577BA" transform="translate(202,108)"/>
<path d="M0 0 C8.25 0.33 16.5 0.66 25 1 C24 6 24 6 21.0625 8.3125 C18 10 18 10 16 10 C16.1875 8.1875 16.1875 8.1875 17 6 C18.65 5.01 20.3 4.02 22 3 C14.74 2.67 7.48 2.34 0 2 C0 1.34 0 0.68 0 0 Z " fill="#9BAED5" transform="translate(185,318)"/>
<path d="M0 0 C1.2065625 0.0309375 1.2065625 0.0309375 2.4375 0.0625 C2.4375 2.7025 2.4375 5.3425 2.4375 8.0625 C-0.2025 8.0625 -2.8425 8.0625 -5.5625 8.0625 C-3.38616071 0.08258929 -3.38616071 0.08258929 0 0 Z " fill="#365DAD" transform="translate(227.5625,108.9375)"/>
<path d="M0 0 C0.66 0.33 1.32 0.66 2 1 C-1.47822995 5.0640371 -5.51540503 6.99144763 -10.25 9.25 C-11.36761719 9.79527344 -11.36761719 9.79527344 -12.5078125 10.3515625 C-14.33498087 11.24172145 -16.16701834 12.1218739 -18 13 C-17.02113089 10.55282723 -16.43825488 9.25564868 -14.125 7.90625 C-13.073125 7.45765625 -13.073125 7.45765625 -12 7 C-10.65732311 6.18180627 -9.32395292 5.34815734 -8 4.5 C-2.79069767 1.1627907 -2.79069767 1.1627907 0 0 Z " fill="#90A6D1" transform="translate(218,190)"/>
<path d="M0 0 C0.33 0.99 0.66 1.98 1 3 C0.25234375 3.54269531 -0.4953125 4.08539063 -1.265625 4.64453125 C-2.25046875 5.35996094 -3.2353125 6.07539063 -4.25 6.8125 C-5.22453125 7.52019531 -6.1990625 8.22789062 -7.203125 8.95703125 C-8.90102292 10.19725557 -10.58325181 11.45987162 -12.234375 12.76171875 C-14 14 -14 14 -16 14 C-14.47763907 9.8420517 -11.47349145 7.79883173 -8 5.3125 C-7.18015625 4.70825195 -7.18015625 4.70825195 -6.34375 4.09179688 C-4.28178027 2.58322343 -2.2892269 1.14461345 0 0 Z " fill="#BAC7E1" transform="translate(200,325)"/>
<path d="M0 0 C0 0.33 0 0.66 0 1 C-7.76773306 3.44466726 -13.16285613 4.48176222 -21 2 C-20.67 1.34 -20.34 0.68 -20 0 C-13.4935589 -1.97164882 -6.58520461 -1.0975341 0 0 Z " fill="#708CC4" transform="translate(249,207)"/>
<path d="M0 0 C10.23 0 20.46 0 31 0 C30.67 0.66 30.34 1.32 30 2 C21.09 1.67 12.18 1.34 3 1 C3.33 3.64 3.66 6.28 4 9 C3.34 9 2.68 9 2 9 C1.34 6.03 0.68 3.06 0 0 Z " fill="#6986C1" transform="translate(129,135)"/>
<path d="M0 0 C0.66 0 1.32 0 2 0 C1.48719009 5.94859492 -0.33567571 10.53320145 -2.9375 15.875 C-3.29779297 16.64585937 -3.65808594 17.41671875 -4.02929688 18.2109375 C-6.7324953 23.86624765 -6.7324953 23.86624765 -9 25 C-8.44004856 21.42875412 -7.53993467 18.92728981 -5.625 15.875 C-2.69218499 10.83395854 -1.29969972 5.65316546 0 0 Z " fill="#5072B8" transform="translate(306,135)"/>
<path d="M0 0 C1.45006594 2.29772674 2.12048396 3.42051061 1.55615234 6.13476562 C1.23598145 6.88435547 0.91581055 7.63394531 0.5859375 8.40625 C0.23660156 9.23253906 -0.11273438 10.05882812 -0.47265625 10.91015625 C-0.85292969 11.76480469 -1.23320312 12.61945313 -1.625 13.5 C-1.98207031 14.35464844 -2.33914063 15.20929688 -2.70703125 16.08984375 C-4.59032059 20.44792485 -6.2337059 23.93243014 -10 27 C-8.83243713 23.07274309 -7.30370516 19.44743867 -5.5625 15.75 C-3.18225839 10.61628363 -1.45708425 5.46110438 0 0 Z " fill="#B6C4E0" transform="translate(309,132)"/>
<path d="M0 0 C0 3.66190039 -1.08126875 5.12279629 -2.9375 8.25 C-5.43095732 12.66781967 -6.77566563 15.95247674 -7 21 C-7.33 21 -7.66 21 -8 21 C-8.56955826 14.11467348 -8.37928827 9.32563861 -4.38671875 3.55859375 C-3 2 -3 2 0 0 Z " fill="#4F72B8" transform="translate(190,224)"/>
<path d="M0 0 C3.36720387 1.39332574 4.9859524 2.9789286 7 6 C5.93453047 8.13093906 4.70840281 9.36587557 3 11 C0.29417212 7.16674383 -0.32613618 4.67461851 0 0 Z " fill="#234EA6" transform="translate(291,78)"/>
<path d="M0 0 C0.33 0 0.66 0 1 0 C1 3.3 1 6.6 1 10 C-1.97 10 -4.94 10 -8 10 C-8 12.97 -8 15.94 -8 19 C-8.33 19 -8.66 19 -9 19 C-9.33 16.36 -9.66 13.72 -10 11 C-11.32 11.33 -12.64 11.66 -14 12 C-12.35 10.35 -10.7 8.7 -9 7 C-8.67 7.66 -8.34 8.32 -8 9 C-5.36 9 -2.72 9 0 9 C0 6.03 0 3.06 0 0 Z " fill="#5476BA" transform="translate(230,108)"/>
<path d="M0 0 C2.64 0.33 5.28 0.66 8 1 C8 1.66 8 2.32 8 3 C8.99 3 9.98 3 11 3 C11 3.66 11 4.32 11 5 C11.598125 5.12375 12.19625 5.2475 12.8125 5.375 C15 6 15 6 18 8 C17.67 8.99 17.34 9.98 17 11 C16.35933594 10.52949219 15.71867187 10.05898437 15.05859375 9.57421875 C10.17593784 6.0595797 5.64913018 3.08772202 0 1 C0 0.67 0 0.34 0 0 Z " fill="#9CAFD5" transform="translate(255,75)"/>
<path d="M0 0 C-0.7425 0.515625 -1.485 1.03125 -2.25 1.5625 C-5.53628545 4.47534392 -6.98763759 7.12433906 -9 11 C-9.33 11 -9.66 11 -10 11 C-10.2211585 7.75634205 -10.35022703 5.63040865 -8.75 2.75 C-5.72614058 -0.27385942 -4.17157559 -1.3905252 0 0 Z " fill="#A7B8DA" transform="translate(190,338)"/>
<path d="M0 0 C0.66 0.33 1.32 0.66 2 1 C0.25113898 2.91771657 -1.49904501 4.83419683 -3.25 6.75 C-3.74113281 7.28882813 -4.23226563 7.82765625 -4.73828125 8.3828125 C-7.42873164 11.3243716 -10.1531511 14.2073768 -13 17 C-13.66 16.67 -14.32 16.34 -15 16 C-14.33613281 15.34773437 -13.67226563 14.69546875 -12.98828125 14.0234375 C-8.42649537 9.50826841 -3.97889622 5.03993521 0 0 Z " fill="#5577BA" transform="translate(292,171)"/>
<path d="M0 0 C1.45903258 0.30921884 2.91720722 0.62248799 4.375 0.9375 C5.18710937 1.11152344 5.99921875 1.28554687 6.8359375 1.46484375 C9 2 9 2 11 3 C10.67 4.32 10.34 5.64 10 7 C10 6.34 10 5.68 10 5 C8.72125 4.9175 7.4425 4.835 6.125 4.75 C3.9453125 4.609375 3.9453125 4.609375 2 4 C0.7421875 1.953125 0.7421875 1.953125 0 0 Z " fill="#8CA3CF" transform="translate(253,71)"/>
<path d="M0 0 C5.78898419 -0.20674944 10.42932723 0.40837921 16 2 C16 2.66 16 3.32 16 4 C10.43109483 3.52013969 5.32932432 2.70084819 0 1 C0 0.67 0 0.34 0 0 Z " fill="#B3C1DF" transform="translate(242,53)"/>
<path d="M0 0 C0 0.66 0 1.32 0 2 C-0.639375 2.28875 -1.27875 2.5775 -1.9375 2.875 C-4.15206079 3.82823451 -4.15206079 3.82823451 -5 6 C-7.97 6 -10.94 6 -14 6 C-11.74402173 3.74402173 -9.95396133 3.03425808 -7 1.875 C-6.113125 1.52179688 -5.22625 1.16859375 -4.3125 0.8046875 C-2 0 -2 0 0 0 Z " fill="#5E7EBD" transform="translate(256,201)"/>
<path d="M0 0 C-1.2179755 3.65392651 -2.14396506 3.95831699 -5.4375 5.75 C-6.64212891 6.42289062 -6.64212891 6.42289062 -7.87109375 7.109375 C-8.92490234 7.55023438 -8.92490234 7.55023438 -10 8 C-10.66 7.67 -11.32 7.34 -12 7 C-10.70982586 6.01886757 -9.41780894 5.04015801 -8.125 4.0625 C-7.04605469 3.24458984 -7.04605469 3.24458984 -5.9453125 2.41015625 C-2.62049861 0 -2.62049861 0 0 0 Z " fill="#8FA5D0" transform="translate(201,329)"/>
<path d="M0 0 C-2.90908228 1.93938819 -5.40862379 2.96774957 -8.6875 4.125 C-10.17830078 4.65480469 -10.17830078 4.65480469 -11.69921875 5.1953125 C-12.45847656 5.46085937 -13.21773437 5.72640625 -14 6 C-14.66 5.34 -15.32 4.68 -16 4 C-14.274773 3.32320342 -12.54461061 2.65898 -10.8125 2 C-9.84957031 1.62875 -8.88664063 1.2575 -7.89453125 0.875 C-5.07817642 0.02363228 -2.91835561 -0.17072647 0 0 Z " fill="#6080BE" transform="translate(207,298)"/>
<path d="M0 0 C1.9451 2.91765 2.45276317 4.62537285 3 8 C1.35 9.32 -0.3 10.64 -2 12 C-1.85904936 10.3745692 -1.71207913 8.74965949 -1.5625 7.125 C-1.48128906 6.22007812 -1.40007812 5.31515625 -1.31640625 4.3828125 C-1 2 -1 2 0 0 Z " fill="#2C55A9" transform="translate(292,154)"/>
<path d="M0 0 C2 1.0625 2 1.0625 4 3 C4.25 6.6875 4.25 6.6875 4 10 C2 8.9375 2 8.9375 0 7 C-0.25 3.3125 -0.25 3.3125 0 0 Z " fill="#5577BA" transform="translate(283,67)"/>
<path d="M0 0 C0.66 0 1.32 0 2 0 C2 2.31 2 4.62 2 7 C1.34 6.01 0.68 5.02 0 4 C-2.31 5.98 -4.62 7.96 -7 10 C-6.1875 7.5625 -6.1875 7.5625 -5 5 C-4.01 4.67 -3.02 4.34 -2 4 C-2 3.34 -2 2.68 -2 2 C-1.34 2 -0.68 2 0 2 C0 1.34 0 0.68 0 0 Z " fill="#D6DEED" transform="translate(194,222)"/>
<path d="M0 0 C3.4375 1.5625 3.4375 1.5625 6 3 C2.09366863 4.30211046 -0.19538173 3.47812346 -4.1875 2.5625 C-5.45980469 2.27503906 -6.73210937 1.98757812 -8.04296875 1.69140625 C-9.01878906 1.46324219 -9.99460938 1.23507813 -11 1 C-6.94093467 -1.29541031 -4.58157916 -1.02690567 0 0 Z " fill="#D7DEED" transform="translate(260,60)"/>
<path d="M0 0 C0.57234375 0.21527344 1.1446875 0.43054688 1.734375 0.65234375 C0.49493224 1.52175869 -0.75769559 2.37239832 -2.015625 3.21484375 C-2.71171875 3.69050781 -3.4078125 4.16617187 -4.125 4.65625 C-6.265625 5.65234375 -6.265625 5.65234375 -8.53125 5.3046875 C-9.10359375 5.08941406 -9.6759375 4.87414062 -10.265625 4.65234375 C-9.02618224 3.78292881 -7.77355441 2.93228918 -6.515625 2.08984375 C-5.81953125 1.61417969 -5.1234375 1.13851563 -4.40625 0.6484375 C-2.265625 -0.34765625 -2.265625 -0.34765625 0 0 Z " fill="#D2DAEB" transform="translate(200.265625,301.34765625)"/>
<path d="M0 0 C0 0.99 0 1.98 0 3 C-0.66 3 -1.32 3 -2 3 C-2.33 4.32 -2.66 5.64 -3 7 C-3 6.34 -3 5.68 -3 5 C-4.98 5.33 -6.96 5.66 -9 6 C-3.2 0 -3.2 0 0 0 Z " fill="#8FA5D0" transform="translate(205,209)"/>
<path d="M0 0 C0.66 0 1.32 0 2 0 C0.25 5.75 0.25 5.75 -2 8 C-4.625 8.125 -4.625 8.125 -7 8 C-6.21625 7.236875 -5.4325 6.47375 -4.625 5.6875 C-1.92742283 3.09108195 -1.92742283 3.09108195 0 0 Z " fill="#A7B8DA" transform="translate(146,113)"/>
<path d="M0 0 C0.99 0.33 1.98 0.66 3 1 C3 3.64 3 6.28 3 9 C2.01 9 1.02 9 0 9 C0 6.03 0 3.06 0 0 Z " fill="#476BB5" transform="translate(203,108)"/>
<path d="M0 0 C0.33 0 0.66 0 1 0 C1.33 2.64 1.66 5.28 2 8 C2.99 8 3.98 8 5 8 C4.67 9.32 4.34 10.64 4 12 C2.68 11.67 1.36 11.34 0 11 C0 7.37 0 3.74 0 0 Z " fill="#869ECD" transform="translate(211,99)"/>
<path d="M0 0 C0.66 0.33 1.32 0.66 2 1 C-0.32835924 4.49253886 -2.74274862 6.38003693 -6 9 C-6.66 8.67 -7.32 8.34 -8 8 C-5.58443874 4.80800833 -3.31996462 2.25283313 0 0 Z " fill="#4A6DB5" transform="translate(197,304)"/>
<path d="M0 0 C0.99 0.33 1.98 0.66 3 1 C2.67 2.98 2.34 4.96 2 7 C-0.475 6.01 -0.475 6.01 -3 5 C-2.34 4.67 -1.68 4.34 -1 4 C-0.34786708 1.97536745 -0.34786708 1.97536745 0 0 Z " fill="#869ECD" transform="translate(201,264)"/>
<path d="M0 0 C0.93619813 3.15506142 1.1057123 5.96586502 1.0625 9.25 C1.05347656 10.14203125 1.04445312 11.0340625 1.03515625 11.953125 C1.02355469 12.62859375 1.01195312 13.3040625 1 14 C0.34 14 -0.32 14 -1 14 C-2.59789351 9.04653013 -1.28306814 4.86717585 0 0 Z " fill="#819ACB" transform="translate(144,89)"/>
<path d="M0 0 C0.66 0 1.32 0 2 0 C0.55746343 3.36591866 -1.33264727 5.51047079 -4 8 C-4.99 7.67 -5.98 7.34 -7 7 C-5.47005208 5.76302083 -3.94010417 4.52604167 -2.41015625 3.2890625 C-0.86733563 2.0333609 -0.86733563 2.0333609 0 0 Z " fill="#7792C7" transform="translate(245,172)"/>
<path d="M0 0 C0.66 0 1.32 0 2 0 C3.625 2 3.625 2 5 4 C4.34 5.32 3.68 6.64 3 8 C1.68 7.67 0.36 7.34 -1 7 C-0.34 7 0.32 7 1 7 C0.67 4.69 0.34 2.38 0 0 Z " fill="#718DC4" transform="translate(197,260)"/>
<path d="M0 0 C0.66 0.33 1.32 0.66 2 1 C-0.36292656 3.52588702 -1.66462511 4.88820837 -5 6 C-5.33 5.01 -5.66 4.02 -6 3 C-4.03533587 1.93224776 -2.03144641 0.93446535 0 0 Z " fill="#9AAED5" transform="translate(206,325)"/>
<path d="M0 0 C2.64 0 5.28 0 8 0 C8 0.33 8 0.66 8 1 C7.071875 1.268125 6.14375 1.53625 5.1875 1.8125 C2.23759634 2.91148371 0.94384814 3.62418561 -1 6 C-0.67 4.02 -0.34 2.04 0 0 Z " fill="#5C7DBC" transform="translate(310,136)"/>
</svg>
